<svg viewBox="0 0 32 32" enable-background="new 0 0 32 32" version="1.1" xml:space="preserve" xmlns="http://www.w3.org/2000/svg" xmlns:xlink="http://www.w3.org/1999/xlink" fill="#000000"><g id="SVGRepo_bgCarrier" stroke-width="0"></g><g id="SVGRepo_tracerCarrier" stroke-linecap="round" stroke-linejoin="round"></g><g id="SVGRepo_iconCarrier"> <g id="Home"></g> <g id="Print"></g> <g id="Mail"></g> <g id="Camera"></g> <g id="Video"></g> <g id="Film"></g> <g id="Message"></g> <g id="Telephone"></g> <g id="User"></g> <g id="File"></g> <g id="Folder"></g> <g id="Map"></g> <g id="Download"></g> <g id="Upload"></g> <g id="Video_Recorder"></g> <g id="Schedule"></g> <g id="Cart"></g> <g id="Setting"></g> <g id="Search"></g> <g id="Pencils"></g> <g id="Group"></g> <g id="Record"></g> <g id="Headphone"></g> <g id="Music_Player"></g> <g id="Sound_On"></g> <g id="Sound_Off"></g> <g id="Lock"></g> <g id="Lock_open"></g> <g id="Love"></g> <g id="Favorite"></g> <g id="Film_1_"> <path d="M16,1C7.7,1,1,7.7,1,16c0,5.5,3,10.4,7.5,13H2c-0.5,0-1,0.5-1,1s0.5,1,1,1h14c8.3,0,15-6.7,15-15 C31,7.7,24.3,1,16,1z" fill="#BCE29E"></path> <g> <path d="M2,29c-0.5,0-1,0.5-1,1s0.5,1,1,1h14c-2.7,0-5.3-0.7-7.5-2H2z" fill="#FF8787"></path> <path d="M16,19c1.7,0,3-1.4,3-3c0-1.7-1.3-3-3-3c-1.6,0-3,1.3-3,3C13,17.6,14.4,19,16,19z" fill="#FF8787"></path> <path d="M16,20.5c-1,0-2.1,0.4-2.8,1.1c-0.8,0.8-1.2,1.8-1.2,2.8c0,1.1,0.4,2.1,1.2,2.8c0.8,0.8,1.8,1.2,2.8,1.2 s2.1-0.4,2.8-1.2c0.8-0.8,1.2-1.8,1.2-2.8c0-1.1-0.4-2.1-1.2-2.8C18.1,20.9,17,20.5,16,20.5z" fill="#FF8787"></path> <path d="M27.3,13.2c-1.5-1.5-4.1-1.5-5.6,0c-0.8,0.8-1.2,1.8-1.2,2.8s0.4,2.1,1.2,2.8c0.8,0.8,1.8,1.2,2.8,1.2 c1.1,0,2.1-0.4,2.8-1.2c0.8-0.8,1.2-1.8,1.2-2.8S28.1,13.9,27.3,13.2z" fill="#FF8787"></path> <path d="M7.5,20c1.1,0,2.1-0.4,2.8-1.2c0.8-0.8,1.2-1.8,1.2-2.8s-0.4-2.1-1.2-2.8c-1.5-1.5-4.1-1.5-5.7,0 c-0.8,0.8-1.2,1.8-1.2,2.8s0.4,2.1,1.2,2.8C5.4,19.6,6.5,20,7.5,20z" fill="#FF8787"></path> <path d="M16,3.5c-1,0-2.1,0.4-2.8,1.1C12.4,5.4,12,6.5,12,7.5c0,1.1,0.4,2.1,1.2,2.8c0.8,0.8,1.8,1.2,2.8,1.2 s2.1-0.4,2.8-1.2C19.6,9.6,20,8.6,20,7.5c0-1.1-0.4-2.1-1.2-2.8C18.1,3.9,17,3.5,16,3.5z" fill="#FF8787"></path> </g> </g> <g id="Music"></g> <g id="Puzzle"></g> <g id="Turn_Off"></g> <g id="Book"></g> <g id="Save"></g> <g id="Reload"></g> <g id="Trash"></g> <g id="Tag"></g> <g id="Link"></g> <g id="Like"></g> <g id="Bad"></g> <g id="Gallery"></g> <g id="Add"></g> <g id="Close"></g> <g id="Forward"></g> <g id="Back"></g> <g id="Buy"></g> <g id="Mac"></g> <g id="Laptop"></g> </g></svg>